<mxfile host="app.diagrams.net" modified="2023-01-08T07:23:12.724Z" agent="5.0 (Macintosh; Intel Mac OS X 10_15_7) AppleWebKit/537.36 (KHTML, like Gecko) Chrome/108.0.0.0 Safari/537.36" version="20.8.3" etag="zzcdv7U-Mt77FpspmVy5" type="github">
  <diagram id="XPhTKNF28dQuIdIMpQ-h" name="第 1 页">
    <mxGraphModel dx="2099" dy="1924" grid="0" gridSize="10" guides="1" tooltips="1" connect="1" arrows="1" fold="1" page="1" pageScale="1" pageWidth="827" pageHeight="1169" math="0" shadow="0">
      <root>
        <mxCell id="0" />
        <mxCell id="1" parent="0" />
        <mxCell id="LTn0dVmBfaK23uDgp_GB-1" value="" style="verticalLabelPosition=bottom;verticalAlign=top;html=1;shape=hexagon;perimeter=hexagonPerimeter2;arcSize=6;size=0.25;rotation=30;" vertex="1" parent="1">
          <mxGeometry x="349.99999999999994" y="200" width="93" height="80" as="geometry" />
        </mxCell>
        <mxCell id="LTn0dVmBfaK23uDgp_GB-2" value="" style="verticalLabelPosition=bottom;verticalAlign=top;html=1;shape=hexagon;perimeter=hexagonPerimeter2;arcSize=6;size=0.25;rotation=30;" vertex="1" parent="1">
          <mxGeometry x="430.99999999999994" y="200" width="93" height="80" as="geometry" />
        </mxCell>
        <mxCell id="LTn0dVmBfaK23uDgp_GB-3" value="" style="verticalLabelPosition=bottom;verticalAlign=top;html=1;shape=hexagon;perimeter=hexagonPerimeter2;arcSize=6;size=0.25;rotation=30;" vertex="1" parent="1">
          <mxGeometry x="389.99999999999994" y="269" width="93" height="80" as="geometry" />
        </mxCell>
        <mxCell id="LTn0dVmBfaK23uDgp_GB-4" value="" style="verticalLabelPosition=bottom;verticalAlign=top;html=1;shape=hexagon;perimeter=hexagonPerimeter2;arcSize=6;size=0.25;rotation=30;" vertex="1" parent="1">
          <mxGeometry x="308.99999999999994" y="269" width="93" height="80" as="geometry" />
        </mxCell>
        <mxCell id="LTn0dVmBfaK23uDgp_GB-5" value="" style="verticalLabelPosition=bottom;verticalAlign=top;html=1;shape=hexagon;perimeter=hexagonPerimeter2;arcSize=6;size=0.25;rotation=30;" vertex="1" parent="1">
          <mxGeometry x="268.99999999999994" y="200" width="93" height="80" as="geometry" />
        </mxCell>
        <mxCell id="LTn0dVmBfaK23uDgp_GB-6" value="" style="verticalLabelPosition=bottom;verticalAlign=top;html=1;shape=hexagon;perimeter=hexagonPerimeter2;arcSize=6;size=0.25;rotation=30;" vertex="1" parent="1">
          <mxGeometry x="349.99999999999994" y="339" width="93" height="80" as="geometry" />
        </mxCell>
        <mxCell id="LTn0dVmBfaK23uDgp_GB-7" value="" style="verticalLabelPosition=bottom;verticalAlign=top;html=1;shape=hexagon;perimeter=hexagonPerimeter2;arcSize=6;size=0.25;rotation=30;" vertex="1" parent="1">
          <mxGeometry x="389.99999999999994" y="130" width="93" height="80" as="geometry" />
        </mxCell>
        <mxCell id="LTn0dVmBfaK23uDgp_GB-8" value="" style="verticalLabelPosition=bottom;verticalAlign=top;html=1;shape=hexagon;perimeter=hexagonPerimeter2;arcSize=6;size=0.25;rotation=30;" vertex="1" parent="1">
          <mxGeometry x="308.99999999999994" y="130" width="93" height="80" as="geometry" />
        </mxCell>
        <mxCell id="LTn0dVmBfaK23uDgp_GB-9" value="" style="verticalLabelPosition=bottom;verticalAlign=top;html=1;shape=hexagon;perimeter=hexagonPerimeter2;arcSize=6;size=0.25;rotation=30;" vertex="1" parent="1">
          <mxGeometry x="469.99999999999994" y="130" width="93" height="80" as="geometry" />
        </mxCell>
        <mxCell id="LTn0dVmBfaK23uDgp_GB-10" value="" style="verticalLabelPosition=bottom;verticalAlign=top;html=1;shape=hexagon;perimeter=hexagonPerimeter2;arcSize=6;size=0.25;rotation=30;" vertex="1" parent="1">
          <mxGeometry x="512" y="200" width="93" height="80" as="geometry" />
        </mxCell>
        <mxCell id="LTn0dVmBfaK23uDgp_GB-11" value="" style="verticalLabelPosition=bottom;verticalAlign=top;html=1;shape=hexagon;perimeter=hexagonPerimeter2;arcSize=6;size=0.25;rotation=30;" vertex="1" parent="1">
          <mxGeometry x="469.99999999999994" y="269" width="93" height="80" as="geometry" />
        </mxCell>
        <mxCell id="LTn0dVmBfaK23uDgp_GB-12" value="" style="verticalLabelPosition=bottom;verticalAlign=top;html=1;shape=hexagon;perimeter=hexagonPerimeter2;arcSize=6;size=0.25;rotation=30;" vertex="1" parent="1">
          <mxGeometry x="430.99999999999994" y="339" width="93" height="80" as="geometry" />
        </mxCell>
        <mxCell id="LTn0dVmBfaK23uDgp_GB-13" value="" style="verticalLabelPosition=bottom;verticalAlign=top;html=1;shape=hexagon;perimeter=hexagonPerimeter2;arcSize=6;size=0.25;rotation=30;" vertex="1" parent="1">
          <mxGeometry x="511.99999999999994" y="339" width="93" height="80" as="geometry" />
        </mxCell>
        <mxCell id="LTn0dVmBfaK23uDgp_GB-14" value="" style="verticalLabelPosition=bottom;verticalAlign=top;html=1;shape=hexagon;perimeter=hexagonPerimeter2;arcSize=6;size=0.25;rotation=30;" vertex="1" parent="1">
          <mxGeometry x="550" y="269" width="93" height="80" as="geometry" />
        </mxCell>
        <mxCell id="LTn0dVmBfaK23uDgp_GB-15" value="" style="verticalLabelPosition=bottom;verticalAlign=top;html=1;shape=hexagon;perimeter=hexagonPerimeter2;arcSize=6;size=0.25;rotation=30;" vertex="1" parent="1">
          <mxGeometry x="590" y="200" width="93" height="80" as="geometry" />
        </mxCell>
        <mxCell id="LTn0dVmBfaK23uDgp_GB-16" value="" style="verticalLabelPosition=bottom;verticalAlign=top;html=1;shape=hexagon;perimeter=hexagonPerimeter2;arcSize=6;size=0.25;rotation=30;" vertex="1" parent="1">
          <mxGeometry x="550" y="130" width="93" height="80" as="geometry" />
        </mxCell>
        <mxCell id="LTn0dVmBfaK23uDgp_GB-17" value="" style="shape=image;verticalLabelPosition=bottom;verticalAlign=top;imageAspect=0;image=https://cdn.discordapp.com/attachments/878496221998772225/1061518419993821224/magicut_1673156061437.png" vertex="1" parent="1">
          <mxGeometry x="266" y="192.0000000000001" width="102" height="101" as="geometry" />
        </mxCell>
        <mxCell id="LTn0dVmBfaK23uDgp_GB-18" value="" style="shape=image;verticalLabelPosition=bottom;verticalAlign=top;imageAspect=0;image=https://cdn.discordapp.com/attachments/878496221998772225/1061518419993821224/magicut_1673156061437.png" vertex="1" parent="1">
          <mxGeometry x="348" y="192.0000000000001" width="102" height="101" as="geometry" />
        </mxCell>
        <mxCell id="LTn0dVmBfaK23uDgp_GB-19" value="" style="shape=image;verticalLabelPosition=bottom;verticalAlign=top;imageAspect=0;image=https://cdn.discordapp.com/attachments/878496221998772225/1061518419993821224/magicut_1673156061437.png" vertex="1" parent="1">
          <mxGeometry x="429" y="192.0000000000001" width="102" height="101" as="geometry" />
        </mxCell>
        <mxCell id="LTn0dVmBfaK23uDgp_GB-20" value="" style="shape=image;verticalLabelPosition=bottom;verticalAlign=top;imageAspect=0;image=https://cdn.discordapp.com/attachments/878496221998772225/1061518419993821224/magicut_1673156061437.png" vertex="1" parent="1">
          <mxGeometry x="510" y="192.0000000000001" width="102" height="101" as="geometry" />
        </mxCell>
        <mxCell id="LTn0dVmBfaK23uDgp_GB-21" value="" style="shape=image;verticalLabelPosition=bottom;verticalAlign=top;imageAspect=0;image=https://cdn.discordapp.com/attachments/878496221998772225/1061518419993821224/magicut_1673156061437.png" vertex="1" parent="1">
          <mxGeometry x="388" y="123.00000000000011" width="102" height="101" as="geometry" />
        </mxCell>
        <mxCell id="LTn0dVmBfaK23uDgp_GB-22" value="" style="verticalLabelPosition=bottom;verticalAlign=top;html=1;shape=hexagon;perimeter=hexagonPerimeter2;arcSize=6;size=0.25;rotation=30;" vertex="1" parent="1">
          <mxGeometry x="227.99999999999994" y="269" width="93" height="80" as="geometry" />
        </mxCell>
        <mxCell id="LTn0dVmBfaK23uDgp_GB-23" value="" style="verticalLabelPosition=bottom;verticalAlign=top;html=1;shape=hexagon;perimeter=hexagonPerimeter2;arcSize=6;size=0.25;rotation=30;" vertex="1" parent="1">
          <mxGeometry x="268.99999999999994" y="339" width="93" height="80" as="geometry" />
        </mxCell>
        <mxCell id="LTn0dVmBfaK23uDgp_GB-24" value="" style="verticalLabelPosition=bottom;verticalAlign=top;html=1;shape=hexagon;perimeter=hexagonPerimeter2;arcSize=6;size=0.25;rotation=30;" vertex="1" parent="1">
          <mxGeometry x="187.99999999999994" y="339" width="93" height="80" as="geometry" />
        </mxCell>
        <mxCell id="LTn0dVmBfaK23uDgp_GB-25" value="" style="verticalLabelPosition=bottom;verticalAlign=top;html=1;shape=hexagon;perimeter=hexagonPerimeter2;arcSize=6;size=0.25;rotation=30;" vertex="1" parent="1">
          <mxGeometry x="146.99999999999994" y="269" width="93" height="80" as="geometry" />
        </mxCell>
        <mxCell id="LTn0dVmBfaK23uDgp_GB-26" value="" style="verticalLabelPosition=bottom;verticalAlign=top;html=1;shape=hexagon;perimeter=hexagonPerimeter2;arcSize=6;size=0.25;rotation=30;" vertex="1" parent="1">
          <mxGeometry x="187.99999999999994" y="200" width="93" height="80" as="geometry" />
        </mxCell>
        <mxCell id="LTn0dVmBfaK23uDgp_GB-27" value="" style="verticalLabelPosition=bottom;verticalAlign=top;html=1;shape=hexagon;perimeter=hexagonPerimeter2;arcSize=6;size=0.25;rotation=30;" vertex="1" parent="1">
          <mxGeometry x="227.99999999999994" y="130" width="93" height="80" as="geometry" />
        </mxCell>
        <mxCell id="LTn0dVmBfaK23uDgp_GB-28" value="" style="verticalLabelPosition=bottom;verticalAlign=top;html=1;shape=hexagon;perimeter=hexagonPerimeter2;arcSize=6;size=0.25;rotation=30;" vertex="1" parent="1">
          <mxGeometry x="146.99999999999994" y="130" width="93" height="80" as="geometry" />
        </mxCell>
        <mxCell id="LTn0dVmBfaK23uDgp_GB-29" value="" style="verticalLabelPosition=bottom;verticalAlign=top;html=1;shape=hexagon;perimeter=hexagonPerimeter2;arcSize=6;size=0.25;rotation=30;" vertex="1" parent="1">
          <mxGeometry x="106.99999999999994" y="200" width="93" height="80" as="geometry" />
        </mxCell>
        <mxCell id="LTn0dVmBfaK23uDgp_GB-30" value="" style="verticalLabelPosition=bottom;verticalAlign=top;html=1;shape=hexagon;perimeter=hexagonPerimeter2;arcSize=6;size=0.25;rotation=30;" vertex="1" parent="1">
          <mxGeometry x="65.99999999999994" y="269" width="93" height="80" as="geometry" />
        </mxCell>
        <mxCell id="LTn0dVmBfaK23uDgp_GB-31" value="" style="verticalLabelPosition=bottom;verticalAlign=top;html=1;shape=hexagon;perimeter=hexagonPerimeter2;arcSize=6;size=0.25;rotation=30;" vertex="1" parent="1">
          <mxGeometry x="106.99999999999994" y="339" width="93" height="80" as="geometry" />
        </mxCell>
        <mxCell id="LTn0dVmBfaK23uDgp_GB-32" value="" style="verticalLabelPosition=bottom;verticalAlign=top;html=1;shape=hexagon;perimeter=hexagonPerimeter2;arcSize=6;size=0.25;rotation=30;" vertex="1" parent="1">
          <mxGeometry x="146.99999999999994" y="409" width="93" height="80" as="geometry" />
        </mxCell>
        <mxCell id="LTn0dVmBfaK23uDgp_GB-34" value="" style="verticalLabelPosition=bottom;verticalAlign=top;html=1;shape=hexagon;perimeter=hexagonPerimeter2;arcSize=6;size=0.25;rotation=30;" vertex="1" parent="1">
          <mxGeometry x="308.99999999999994" y="409" width="93" height="80" as="geometry" />
        </mxCell>
        <mxCell id="LTn0dVmBfaK23uDgp_GB-35" value="" style="verticalLabelPosition=bottom;verticalAlign=top;html=1;shape=hexagon;perimeter=hexagonPerimeter2;arcSize=6;size=0.25;rotation=30;fillColor=#000000;gradientColor=none;" vertex="1" parent="1">
          <mxGeometry x="389.99999999999994" y="409" width="93" height="80" as="geometry" />
        </mxCell>
        <mxCell id="LTn0dVmBfaK23uDgp_GB-36" value="" style="verticalLabelPosition=bottom;verticalAlign=top;html=1;shape=hexagon;perimeter=hexagonPerimeter2;arcSize=6;size=0.25;rotation=30;fillColor=#000000;" vertex="1" parent="1">
          <mxGeometry x="470.13" y="408.5" width="95" height="80" as="geometry" />
        </mxCell>
        <mxCell id="LTn0dVmBfaK23uDgp_GB-37" value="" style="shape=image;verticalLabelPosition=bottom;verticalAlign=top;imageAspect=0;image=https://cdn.discordapp.com/attachments/878496221998772225/1061518419993821224/magicut_1673156061437.png" vertex="1" parent="1">
          <mxGeometry x="226" y="262.0000000000001" width="102" height="101" as="geometry" />
        </mxCell>
        <mxCell id="LTn0dVmBfaK23uDgp_GB-38" value="" style="shape=image;verticalLabelPosition=bottom;verticalAlign=top;imageAspect=0;image=https://cdn.discordapp.com/attachments/878496221998772225/1061518419993821224/magicut_1673156061437.png" vertex="1" parent="1">
          <mxGeometry x="142.5" y="262.0000000000001" width="102" height="101" as="geometry" />
        </mxCell>
        <mxCell id="LTn0dVmBfaK23uDgp_GB-39" value="" style="shape=image;verticalLabelPosition=bottom;verticalAlign=top;imageAspect=0;image=https://cdn.discordapp.com/attachments/878496221998772225/1061518419993821224/magicut_1673156061437.png" vertex="1" parent="1">
          <mxGeometry x="102.5" y="331.0000000000001" width="102" height="101" as="geometry" />
        </mxCell>
        <mxCell id="LTn0dVmBfaK23uDgp_GB-40" value="" style="shape=image;verticalLabelPosition=bottom;verticalAlign=top;imageAspect=0;image=https://cdn.discordapp.com/attachments/878496221998772225/1061518419993821224/magicut_1673156061437.png" vertex="1" parent="1">
          <mxGeometry x="186" y="331.0000000000001" width="102" height="101" as="geometry" />
        </mxCell>
        <mxCell id="LTn0dVmBfaK23uDgp_GB-41" value="" style="shape=image;verticalLabelPosition=bottom;verticalAlign=top;imageAspect=0;image=https://cdn.discordapp.com/attachments/878496221998772225/1061518419993821224/magicut_1673156061437.png" vertex="1" parent="1">
          <mxGeometry x="266" y="331.0000000000001" width="102" height="101" as="geometry" />
        </mxCell>
        <mxCell id="LTn0dVmBfaK23uDgp_GB-42" value="" style="shape=image;verticalLabelPosition=bottom;verticalAlign=top;imageAspect=0;image=https://cdn.discordapp.com/attachments/878496221998772225/1061518419993821224/magicut_1673156061437.png" vertex="1" parent="1">
          <mxGeometry x="348" y="331.0000000000001" width="102" height="101" as="geometry" />
        </mxCell>
        <mxCell id="LTn0dVmBfaK23uDgp_GB-43" value="" style="shape=image;verticalLabelPosition=bottom;verticalAlign=top;imageAspect=0;image=https://cdn.discordapp.com/attachments/878496221998772225/1061518419993821224/magicut_1673156061437.png" vertex="1" parent="1">
          <mxGeometry x="307" y="401.0000000000001" width="102" height="101" as="geometry" />
        </mxCell>
        <mxCell id="LTn0dVmBfaK23uDgp_GB-44" value="" style="verticalLabelPosition=bottom;verticalAlign=top;html=1;shape=hexagon;perimeter=hexagonPerimeter2;arcSize=6;size=0.25;rotation=30;" vertex="1" parent="1">
          <mxGeometry x="631" y="269" width="93" height="80" as="geometry" />
        </mxCell>
        <mxCell id="LTn0dVmBfaK23uDgp_GB-45" value="" style="verticalLabelPosition=bottom;verticalAlign=top;html=1;shape=hexagon;perimeter=hexagonPerimeter2;arcSize=6;size=0.25;rotation=30;" vertex="1" parent="1">
          <mxGeometry x="671" y="200" width="93" height="80" as="geometry" />
        </mxCell>
        <mxCell id="LTn0dVmBfaK23uDgp_GB-46" value="" style="verticalLabelPosition=bottom;verticalAlign=top;html=1;shape=hexagon;perimeter=hexagonPerimeter2;arcSize=6;size=0.25;rotation=30;fillColor=#000000;" vertex="1" parent="1">
          <mxGeometry x="590" y="339" width="93" height="80" as="geometry" />
        </mxCell>
        <mxCell id="LTn0dVmBfaK23uDgp_GB-47" value="" style="verticalLabelPosition=bottom;verticalAlign=top;html=1;shape=hexagon;perimeter=hexagonPerimeter2;arcSize=6;size=0.25;rotation=30;fillColor=#000000;" vertex="1" parent="1">
          <mxGeometry x="671" y="339" width="93" height="80" as="geometry" />
        </mxCell>
        <mxCell id="LTn0dVmBfaK23uDgp_GB-48" value="" style="verticalLabelPosition=bottom;verticalAlign=top;html=1;shape=hexagon;perimeter=hexagonPerimeter2;arcSize=6;size=0.25;rotation=30;" vertex="1" parent="1">
          <mxGeometry x="712" y="269" width="93" height="80" as="geometry" />
        </mxCell>
        <mxCell id="LTn0dVmBfaK23uDgp_GB-49" value="" style="verticalLabelPosition=bottom;verticalAlign=top;html=1;shape=hexagon;perimeter=hexagonPerimeter2;arcSize=6;size=0.25;rotation=30;fillColor=#000000;" vertex="1" parent="1">
          <mxGeometry x="550" y="409" width="93" height="80" as="geometry" />
        </mxCell>
        <mxCell id="LTn0dVmBfaK23uDgp_GB-50" value="" style="verticalLabelPosition=bottom;verticalAlign=top;html=1;shape=hexagon;perimeter=hexagonPerimeter2;arcSize=6;size=0.25;rotation=30;strokeColor=#000000;fillColor=#000000;" vertex="1" parent="1">
          <mxGeometry x="631" y="409" width="93" height="80" as="geometry" />
        </mxCell>
        <mxCell id="LTn0dVmBfaK23uDgp_GB-51" value="" style="verticalLabelPosition=bottom;verticalAlign=top;html=1;shape=hexagon;perimeter=hexagonPerimeter2;arcSize=6;size=0.25;rotation=30;" vertex="1" parent="1">
          <mxGeometry x="429" y="60" width="93" height="80" as="geometry" />
        </mxCell>
        <mxCell id="LTn0dVmBfaK23uDgp_GB-52" value="" style="verticalLabelPosition=bottom;verticalAlign=top;html=1;shape=hexagon;perimeter=hexagonPerimeter2;arcSize=6;size=0.25;rotation=30;" vertex="1" parent="1">
          <mxGeometry x="350" y="60" width="93" height="80" as="geometry" />
        </mxCell>
        <mxCell id="LTn0dVmBfaK23uDgp_GB-53" value="" style="verticalLabelPosition=bottom;verticalAlign=top;html=1;shape=hexagon;perimeter=hexagonPerimeter2;arcSize=6;size=0.25;rotation=30;" vertex="1" parent="1">
          <mxGeometry x="269" y="60" width="93" height="80" as="geometry" />
        </mxCell>
        <mxCell id="LTn0dVmBfaK23uDgp_GB-54" value="" style="verticalLabelPosition=bottom;verticalAlign=top;html=1;shape=hexagon;perimeter=hexagonPerimeter2;arcSize=6;size=0.25;rotation=30;" vertex="1" parent="1">
          <mxGeometry x="510" y="60" width="93" height="80" as="geometry" />
        </mxCell>
        <mxCell id="LTn0dVmBfaK23uDgp_GB-56" value="" style="verticalLabelPosition=bottom;verticalAlign=top;html=1;shape=hexagon;perimeter=hexagonPerimeter2;arcSize=6;size=0.25;rotation=30;" vertex="1" parent="1">
          <mxGeometry x="590" y="60" width="93" height="80" as="geometry" />
        </mxCell>
        <mxCell id="LTn0dVmBfaK23uDgp_GB-57" value="" style="verticalLabelPosition=bottom;verticalAlign=top;html=1;shape=hexagon;perimeter=hexagonPerimeter2;arcSize=6;size=0.25;rotation=30;" vertex="1" parent="1">
          <mxGeometry x="631" y="130" width="93" height="80" as="geometry" />
        </mxCell>
        <mxCell id="LTn0dVmBfaK23uDgp_GB-59" value="" style="verticalLabelPosition=bottom;verticalAlign=top;html=1;shape=hexagon;perimeter=hexagonPerimeter2;arcSize=6;size=0.25;rotation=30;" vertex="1" parent="1">
          <mxGeometry x="66" y="409" width="93" height="80" as="geometry" />
        </mxCell>
        <mxCell id="LTn0dVmBfaK23uDgp_GB-60" value="" style="verticalLabelPosition=bottom;verticalAlign=top;html=1;shape=hexagon;perimeter=hexagonPerimeter2;arcSize=6;size=0.25;rotation=30;" vertex="1" parent="1">
          <mxGeometry x="26" y="339" width="93" height="80" as="geometry" />
        </mxCell>
        <mxCell id="LTn0dVmBfaK23uDgp_GB-61" value="" style="verticalLabelPosition=bottom;verticalAlign=top;html=1;shape=hexagon;perimeter=hexagonPerimeter2;arcSize=6;size=0.25;rotation=30;" vertex="1" parent="1">
          <mxGeometry x="-15" y="409" width="93" height="80" as="geometry" />
        </mxCell>
        <mxCell id="LTn0dVmBfaK23uDgp_GB-62" value="" style="verticalLabelPosition=bottom;verticalAlign=top;html=1;shape=hexagon;perimeter=hexagonPerimeter2;arcSize=6;size=0.25;rotation=30;" vertex="1" parent="1">
          <mxGeometry x="-55" y="339" width="93" height="80" as="geometry" />
        </mxCell>
        <mxCell id="LTn0dVmBfaK23uDgp_GB-63" value="" style="verticalLabelPosition=bottom;verticalAlign=top;html=1;shape=hexagon;perimeter=hexagonPerimeter2;arcSize=6;size=0.25;rotation=30;" vertex="1" parent="1">
          <mxGeometry x="-15" y="269" width="93" height="80" as="geometry" />
        </mxCell>
        <mxCell id="LTn0dVmBfaK23uDgp_GB-64" value="" style="verticalLabelPosition=bottom;verticalAlign=top;html=1;shape=hexagon;perimeter=hexagonPerimeter2;arcSize=6;size=0.25;rotation=30;" vertex="1" parent="1">
          <mxGeometry x="26" y="200" width="93" height="80" as="geometry" />
        </mxCell>
        <mxCell id="LTn0dVmBfaK23uDgp_GB-65" value="" style="verticalLabelPosition=bottom;verticalAlign=top;html=1;shape=hexagon;perimeter=hexagonPerimeter2;arcSize=6;size=0.25;rotation=30;" vertex="1" parent="1">
          <mxGeometry x="66" y="130" width="93" height="80" as="geometry" />
        </mxCell>
        <mxCell id="LTn0dVmBfaK23uDgp_GB-68" value="" style="verticalLabelPosition=bottom;verticalAlign=top;html=1;shape=hexagon;perimeter=hexagonPerimeter2;arcSize=6;size=0.25;rotation=30;" vertex="1" parent="1">
          <mxGeometry x="107" y="478" width="93" height="80" as="geometry" />
        </mxCell>
        <mxCell id="LTn0dVmBfaK23uDgp_GB-69" value="" style="verticalLabelPosition=bottom;verticalAlign=top;html=1;shape=hexagon;perimeter=hexagonPerimeter2;arcSize=6;size=0.25;rotation=30;fillColor=#000000;" vertex="1" parent="1">
          <mxGeometry x="350" y="478" width="93" height="80" as="geometry" />
        </mxCell>
        <mxCell id="LTn0dVmBfaK23uDgp_GB-70" value="" style="verticalLabelPosition=bottom;verticalAlign=top;html=1;shape=hexagon;perimeter=hexagonPerimeter2;arcSize=6;size=0.25;rotation=30;" vertex="1" parent="1">
          <mxGeometry x="431" y="478" width="93" height="80" as="geometry" />
        </mxCell>
        <mxCell id="LTn0dVmBfaK23uDgp_GB-74" value="" style="verticalLabelPosition=bottom;verticalAlign=top;html=1;shape=hexagon;perimeter=hexagonPerimeter2;arcSize=6;size=0.25;rotation=30;" vertex="1" parent="1">
          <mxGeometry x="147" y="547" width="93" height="80" as="geometry" />
        </mxCell>
        <mxCell id="LTn0dVmBfaK23uDgp_GB-75" value="" style="verticalLabelPosition=bottom;verticalAlign=top;html=1;shape=hexagon;perimeter=hexagonPerimeter2;arcSize=6;size=0.25;rotation=30;" vertex="1" parent="1">
          <mxGeometry x="66" y="547" width="93" height="80" as="geometry" />
        </mxCell>
        <mxCell id="LTn0dVmBfaK23uDgp_GB-76" value="" style="verticalLabelPosition=bottom;verticalAlign=top;html=1;shape=hexagon;perimeter=hexagonPerimeter2;arcSize=6;size=0.25;rotation=30;" vertex="1" parent="1">
          <mxGeometry x="26" y="478" width="93" height="80" as="geometry" />
        </mxCell>
        <mxCell id="LTn0dVmBfaK23uDgp_GB-77" value="" style="shape=image;verticalLabelPosition=bottom;verticalAlign=top;imageAspect=0;image=https://cdn.discordapp.com/attachments/878496221998772225/1061518419993821224/magicut_1673156061437.png" vertex="1" parent="1">
          <mxGeometry x="629" y="262.0000000000001" width="102" height="101" as="geometry" />
        </mxCell>
        <mxCell id="LTn0dVmBfaK23uDgp_GB-78" value="" style="shape=image;verticalLabelPosition=bottom;verticalAlign=top;imageAspect=0;image=https://cdn.discordapp.com/attachments/878496221998772225/1061518419993821224/magicut_1673156061437.png" vertex="1" parent="1">
          <mxGeometry x="710" y="262.0000000000001" width="102" height="101" as="geometry" />
        </mxCell>
        <mxCell id="LTn0dVmBfaK23uDgp_GB-80" value="" style="shape=image;verticalLabelPosition=bottom;verticalAlign=top;imageAspect=0;image=https://cdn.discordapp.com/attachments/878496221998772225/1061520916720398516/magicut_1673156687559.png;strokeColor=#000000;fillColor=#000000;gradientColor=none;" vertex="1" parent="1">
          <mxGeometry x="314.38" y="247.00000000000006" width="87.25" height="109" as="geometry" />
        </mxCell>
        <mxCell id="LTn0dVmBfaK23uDgp_GB-81" value="" style="shape=image;verticalLabelPosition=bottom;verticalAlign=top;imageAspect=0;image=https://cdn.discordapp.com/attachments/878496221998772225/1061524445459656734/magicut_1673157541126.png;strokeColor=#000000;fillColor=#000000;gradientColor=none;" vertex="1" parent="1">
          <mxGeometry x="395.25" y="205" width="82.5" height="151" as="geometry" />
        </mxCell>
        <mxCell id="LTn0dVmBfaK23uDgp_GB-82" value="" style="shape=image;verticalLabelPosition=bottom;verticalAlign=top;imageAspect=0;image=https://cdn.discordapp.com/attachments/878496221998772225/1061524445459656734/magicut_1673157541126.png;strokeColor=#000000;fillColor=#000000;gradientColor=none;" vertex="1" parent="1">
          <mxGeometry x="475.25" y="205" width="82.5" height="151" as="geometry" />
        </mxCell>
        <mxCell id="LTn0dVmBfaK23uDgp_GB-83" value="" style="shape=image;verticalLabelPosition=bottom;verticalAlign=top;imageAspect=0;image=https://cdn.discordapp.com/attachments/878496221998772225/1061524445459656734/magicut_1673157541126.png;strokeColor=#000000;fillColor=#000000;gradientColor=none;" vertex="1" parent="1">
          <mxGeometry x="434.25" y="273" width="82.5" height="151" as="geometry" />
        </mxCell>
        <mxCell id="LTn0dVmBfaK23uDgp_GB-84" value="" style="shape=image;verticalLabelPosition=bottom;verticalAlign=top;imageAspect=0;image=https://cdn.discordapp.com/attachments/878496221998772225/1061524445459656734/magicut_1673157541126.png;strokeColor=#000000;fillColor=#000000;gradientColor=none;" vertex="1" parent="1">
          <mxGeometry x="555.25" y="205" width="82.5" height="151" as="geometry" />
        </mxCell>
        <mxCell id="LTn0dVmBfaK23uDgp_GB-85" value="" style="shape=image;verticalLabelPosition=bottom;verticalAlign=top;imageAspect=0;image=https://cdn.discordapp.com/attachments/878496221998772225/1061524445459656734/magicut_1673157541126.png;strokeColor=#000000;fillColor=#000000;gradientColor=none;" vertex="1" parent="1">
          <mxGeometry x="516.75" y="273" width="82.5" height="151" as="geometry" />
        </mxCell>
        <mxCell id="LTn0dVmBfaK23uDgp_GB-91" value="" style="shape=image;verticalLabelPosition=bottom;verticalAlign=top;imageAspect=0;image=https://cdn.discordapp.com/attachments/878496221998772225/1061520916720398516/magicut_1673156687559.png;strokeColor=#000000;fillColor=#000000;gradientColor=none;" vertex="1" parent="1">
          <mxGeometry x="472.87" y="108.00000000000006" width="87.25" height="109" as="geometry" />
        </mxCell>
        <mxCell id="LTn0dVmBfaK23uDgp_GB-92" value="" style="shape=image;verticalLabelPosition=bottom;verticalAlign=top;imageAspect=0;image=https://cdn.discordapp.com/attachments/878496221998772225/1061527688256430130/magicut_1673158315589.png;strokeColor=#000000;fillColor=#000000;gradientColor=none;" vertex="1" parent="1">
          <mxGeometry x="435.25" y="-68" width="89.5" height="214" as="geometry" />
        </mxCell>
        <mxCell id="LTn0dVmBfaK23uDgp_GB-94" value="" style="shape=image;verticalLabelPosition=bottom;verticalAlign=top;imageAspect=0;image=https://cdn.discordapp.com/attachments/878496221998772225/1061527688256430130/magicut_1673158315589.png;strokeColor=#000000;fillColor=#000000;gradientColor=none;" vertex="1" parent="1">
          <mxGeometry x="599.25" y="-74" width="89.5" height="214" as="geometry" />
        </mxCell>
        <mxCell id="LTn0dVmBfaK23uDgp_GB-88" value="" style="shape=image;verticalLabelPosition=bottom;verticalAlign=top;imageAspect=0;image=https://cdn.discordapp.com/attachments/878496221998772225/1061527688256430130/magicut_1673158315589.png;strokeColor=#000000;fillColor=#000000;gradientColor=none;" vertex="1" parent="1">
          <mxGeometry x="637.75" y="3" width="89.5" height="214" as="geometry" />
        </mxCell>
        <mxCell id="LTn0dVmBfaK23uDgp_GB-95" value="" style="shape=image;verticalLabelPosition=bottom;verticalAlign=top;imageAspect=0;image=https://cdn.discordapp.com/attachments/878496221998772225/1061527688256430130/magicut_1673158315589.png;strokeColor=#000000;fillColor=#000000;gradientColor=none;" vertex="1" parent="1">
          <mxGeometry x="516.25" y="-68" width="89.5" height="214" as="geometry" />
        </mxCell>
        <mxCell id="LTn0dVmBfaK23uDgp_GB-89" value="" style="shape=image;verticalLabelPosition=bottom;verticalAlign=top;imageAspect=0;image=https://cdn.discordapp.com/attachments/878496221998772225/1061524445459656734/magicut_1673157541126.png;strokeColor=#000000;fillColor=#000000;gradientColor=none;" vertex="1" parent="1">
          <mxGeometry x="555.25" y="66" width="82.5" height="151" as="geometry" />
        </mxCell>
        <mxCell id="LTn0dVmBfaK23uDgp_GB-86" value="" style="shape=image;verticalLabelPosition=bottom;verticalAlign=top;imageAspect=0;image=https://cdn.discordapp.com/attachments/878496221998772225/1061527688256430130/magicut_1673158315589.png;strokeColor=#000000;fillColor=#000000;gradientColor=none;" vertex="1" parent="1">
          <mxGeometry x="596" y="71" width="89.5" height="214" as="geometry" />
        </mxCell>
        <mxCell id="LTn0dVmBfaK23uDgp_GB-87" value="" style="shape=image;verticalLabelPosition=bottom;verticalAlign=top;imageAspect=0;image=https://cdn.discordapp.com/attachments/878496221998772225/1061527688256430130/magicut_1673158315589.png;strokeColor=#000000;fillColor=#000000;gradientColor=none;" vertex="1" parent="1">
          <mxGeometry x="674.5" y="71" width="89.5" height="214" as="geometry" />
        </mxCell>
        <mxCell id="LTn0dVmBfaK23uDgp_GB-96" value="" style="shape=image;verticalLabelPosition=bottom;verticalAlign=top;imageAspect=0;image=https://cdn.discordapp.com/attachments/878496221998772225/1061527688256430130/magicut_1673158315589.png;strokeColor=#000000;fillColor=#000000;gradientColor=none;" vertex="1" parent="1">
          <mxGeometry x="435.25" y="349" width="89.5" height="214" as="geometry" />
        </mxCell>
        <mxCell id="LTn0dVmBfaK23uDgp_GB-97" value="" style="verticalLabelPosition=bottom;verticalAlign=top;html=1;shape=hexagon;perimeter=hexagonPerimeter2;arcSize=6;size=0.25;rotation=30;" vertex="1" parent="1">
          <mxGeometry x="510" y="478" width="93" height="80" as="geometry" />
        </mxCell>
        <mxCell id="LTn0dVmBfaK23uDgp_GB-98" value="" style="shape=image;verticalLabelPosition=bottom;verticalAlign=top;imageAspect=0;image=https://cdn.discordapp.com/attachments/878496221998772225/1061527688256430130/magicut_1673158315589.png;strokeColor=#000000;fillColor=#000000;gradientColor=none;" vertex="1" parent="1">
          <mxGeometry x="516.25" y="349" width="89.5" height="214" as="geometry" />
        </mxCell>
        <mxCell id="LTn0dVmBfaK23uDgp_GB-100" value="" style="verticalLabelPosition=bottom;verticalAlign=top;html=1;shape=hexagon;perimeter=hexagonPerimeter2;arcSize=6;size=0.25;rotation=30;" vertex="1" parent="1">
          <mxGeometry x="553" y="547" width="93" height="80" as="geometry" />
        </mxCell>
        <mxCell id="LTn0dVmBfaK23uDgp_GB-101" value="" style="verticalLabelPosition=bottom;verticalAlign=top;html=1;shape=hexagon;perimeter=hexagonPerimeter2;arcSize=6;size=0.25;rotation=30;fillColor=#000000;" vertex="1" parent="1">
          <mxGeometry x="390" y="547" width="93" height="80" as="geometry" />
        </mxCell>
        <mxCell id="LTn0dVmBfaK23uDgp_GB-102" value="" style="verticalLabelPosition=bottom;verticalAlign=top;html=1;shape=hexagon;perimeter=hexagonPerimeter2;arcSize=6;size=0.25;rotation=30;fillColor=#000000;" vertex="1" parent="1">
          <mxGeometry x="471.13" y="545" width="93" height="80" as="geometry" />
        </mxCell>
        <mxCell id="LTn0dVmBfaK23uDgp_GB-103" value="" style="verticalLabelPosition=bottom;verticalAlign=top;html=1;shape=hexagon;perimeter=hexagonPerimeter2;arcSize=6;size=0.25;rotation=30;fillColor=#000000;" vertex="1" parent="1">
          <mxGeometry x="308.63" y="547" width="93" height="80" as="geometry" />
        </mxCell>
        <mxCell id="LTn0dVmBfaK23uDgp_GB-104" value="" style="verticalLabelPosition=bottom;verticalAlign=top;html=1;shape=hexagon;perimeter=hexagonPerimeter2;arcSize=6;size=0.25;rotation=30;fillColor=#000000;" vertex="1" parent="1">
          <mxGeometry x="269" y="478" width="93" height="80" as="geometry" />
        </mxCell>
        <mxCell id="LTn0dVmBfaK23uDgp_GB-105" value="" style="verticalLabelPosition=bottom;verticalAlign=top;html=1;shape=hexagon;perimeter=hexagonPerimeter2;arcSize=6;size=0.25;rotation=30;fillColor=#000000;" vertex="1" parent="1">
          <mxGeometry x="228" y="408.5" width="93" height="80" as="geometry" />
        </mxCell>
        <mxCell id="LTn0dVmBfaK23uDgp_GB-106" value="" style="verticalLabelPosition=bottom;verticalAlign=top;html=1;shape=hexagon;perimeter=hexagonPerimeter2;arcSize=6;size=0.25;rotation=30;fillColor=#000000;" vertex="1" parent="1">
          <mxGeometry x="190.5" y="478" width="93" height="80" as="geometry" />
        </mxCell>
        <mxCell id="LTn0dVmBfaK23uDgp_GB-107" value="" style="verticalLabelPosition=bottom;verticalAlign=top;html=1;shape=hexagon;perimeter=hexagonPerimeter2;arcSize=6;size=0.25;rotation=30;fillColor=#000000;" vertex="1" parent="1">
          <mxGeometry x="228" y="547" width="93" height="80" as="geometry" />
        </mxCell>
      </root>
    </mxGraphModel>
  </diagram>
</mxfile>
